<?xml version="1.0" encoding="UTF-8" standalone="no"?>
<svg
   xmlns:dc="http://purl.org/dc/elements/1.1/"
   xmlns:cc="http://creativecommons.org/ns#"
   xmlns:rdf="http://www.w3.org/1999/02/22-rdf-syntax-ns#"
   xmlns:svg="http://www.w3.org/2000/svg"
   xmlns="http://www.w3.org/2000/svg"
   xmlns:sodipodi="http://sodipodi.sourceforge.net/DTD/sodipodi-0.dtd"
   xmlns:inkscape="http://www.inkscape.org/namespaces/inkscape"
   version="1.1"
   id="Layer_1"
   x="0px"
   y="0px"
   width="344.60999"
   viewBox="0 0 344.60999 386.96451"
   enable-background="new 0 0 1280 640"
   xml:space="preserve"
   sodipodi:docname="hugo-scms-admin.svg"
   inkscape:version="0.92.2 5c3e80d, 2017-08-06"
   height="386.96451"
   inkscape:export-filename="/Users/brian/Code/basa.casa/hugo-module-bc-nc-admin/static/img/hugo-scms-admin.png"
   inkscape:export-xdpi="38.205055"
   inkscape:export-ydpi="38.205055"><metadata
     id="metadata949"><rdf:RDF><cc:Work
         rdf:about=""><dc:format>image/svg+xml</dc:format><dc:type
           rdf:resource="http://purl.org/dc/dcmitype/StillImage" /><dc:title></dc:title></cc:Work></rdf:RDF></metadata><defs
     id="defs947"><filter
       inkscape:collect="always"
       style="color-interpolation-filters:sRGB"
       id="filter4985"
       x="-0.013120835"
       width="1.0262417"
       y="-0.011003295"
       height="1.0220066"><feGaussianBlur
         inkscape:collect="always"
         stdDeviation="0.23398301"
         id="feGaussianBlur4987" /></filter></defs><sodipodi:namedview
     pagecolor="#ffffff"
     bordercolor="#666666"
     borderopacity="1"
     objecttolerance="10"
     gridtolerance="10"
     guidetolerance="10"
     inkscape:pageopacity="0"
     inkscape:pageshadow="2"
     inkscape:window-width="1434"
     inkscape:window-height="837"
     id="namedview945"
     showgrid="false"
     inkscape:snap-smooth-nodes="false"
     inkscape:zoom="1.0341437"
     inkscape:cx="151.8024"
     inkscape:cy="93.435054"
     inkscape:window-x="0"
     inkscape:window-y="0"
     inkscape:window-maximized="0"
     inkscape:current-layer="Layer_1"
     fit-margin-top="0"
     fit-margin-left="0"
     fit-margin-right="0"
     fit-margin-bottom="0" /><g
     style="fill-rule:evenodd;stroke-width:27"
     id="g4793"
     transform="translate(-0.98999979,-3.7292381)"
     inkscape:export-xdpi="38.205055"
     inkscape:export-ydpi="38.205055"><path
       id="path4776"
       d="m 195.81,24.13 114.41,66.54 a 44,44 0 0 1 21.88,38.04 v 136.43 a 48,48 0 0 1 -24.45,41.82 L 194.1,370.9 a 49,49 0 0 1 -48.48,-0.23 L 41.05,310.48 A 53,53 0 0 1 14.49,264.55 V 135.08 a 55,55 0 0 1 26.1,-46.8 l 102.8,-63.46 a 51,51 0 0 1 52.42,-0.69 z"
       inkscape:connector-curvature="0"
       style="fill:#ff4088;stroke:#c9177e" /></g><path
     class="no-fill"
     d="m 69.62854,114.85313 c 0.368301,-0.55569 0.59703,-1.07743 0.96072,-1.47604 5.332386,-5.84402 11.399511,-10.61571 18.837751,-13.615822 4.770049,-1.923928 9.653659,-3.010838 14.736299,-3.564602 8.24648,-0.898457 16.08174,0.730864 23.60616,3.853024 4.70175,1.95094 8.94267,4.74469 12.81414,8.16564 4.37453,3.86544 7.89463,8.33232 10.82958,13.31945 0.30717,0.52195 0.57499,1.07208 0.80951,1.63077 0.591,1.40776 1.31754,2.50923 2.96797,3.04306 1.99734,0.64604 2.87227,2.82012 2.26851,4.71686 -0.54471,1.71119 -2.51551,2.81683 -4.53682,2.54515 -1.72636,-0.23202 -3.12352,-1.93948 -2.9817,-3.98167 0.22245,-3.20329 -1.64039,-5.62309 -3.12535,-8.05228 -3.07596,-5.03192 -7.03146,-9.3664 -11.91272,-12.7608 -1.66915,-1.16073 -3.40307,-2.23979 -5.17261,-3.24086 -1.33062,-0.75277 -1.79406,-0.43171 -1.80182,1.09387 -0.017,3.33307 0.0556,6.66815 -0.0476,9.9981 -0.0244,0.78678 -0.41965,1.72121 -0.95383,2.30403 -1.79997,1.96389 -3.70859,3.83232 -5.63901,5.67071 -0.90562,0.86242 -0.85292,1.58483 -0.25792,2.62201 1.02507,1.78686 2.26612,2.63148 4.48824,2.5162 4.21069,-0.21844 8.44136,-0.0229 12.66238,-0.0875 1.30224,-0.0199 1.77784,0.38832 1.72661,1.7143 -0.0878,2.27425 0.0144,4.55532 -0.0408,6.83163 -0.0255,1.04812 0.27637,1.49405 1.40428,1.47525 3.44334,-0.0574 6.88905,0.0131 10.33147,-0.0675 0.46982,-0.011 1.14836,-0.49661 1.34876,-0.93634 0.71769,-1.57483 2.25009,-0.82331 3.32403,-1.32046 0.31499,0.69356 0.84842,1.36949 0.90615,2.08385 0.21825,2.70058 0.4274,5.41633 0.37738,8.12156 -0.17231,9.31732 -3.14095,17.78513 -8.29454,25.46659 -1.86951,2.78653 -3.95251,5.50748 -6.33653,7.85347 -3.86961,3.80786 -8.29315,6.95168 -13.23931,9.29863 -5.9148,2.80658 -12.10611,4.36375 -18.66724,4.73739 -9.06258,0.51612 -17.57742,-1.31686 -25.606637,-5.4323 -5.775777,-2.96044 -10.771626,-7.01321 -14.933397,-11.95494 -3.672774,-4.3611 -6.430667,-9.33626 -8.542953,-14.6619 -0.389968,-0.98321 -1.182376,-1.84201 -1.910935,-2.64805 -1.337446,-1.47966 -1.517492,-3.71548 -0.305605,-5.13212 1.447741,-1.69231 3.595058,-1.99858 5.324075,-0.75938 1.420188,1.01789 2.0408,3.07838 1.196625,4.64066 -0.767855,1.42103 -0.667657,2.70695 0.02349,4.07086 0.324065,0.63956 0.543225,1.33138 0.83342,1.98914 1.253255,2.84069 1.563375,2.84734 3.877859,0.74615 2.703214,-2.45414 5.566896,-4.73279 8.241873,-7.21587 0.679088,-0.63038 1.243539,-1.7331 1.281821,-2.64312 0.146948,-3.49363 0.113389,-6.99843 0.03025,-10.49629 -0.03189,-1.34283 0.304643,-1.86833 1.74363,-1.81399 2.829144,0.10684 5.666097,-0.0103 8.497944,0.0516 1.1269,0.0246 1.6177,-0.28351 1.56002,-1.49201 -0.0847,-1.77375 -0.0572,-3.5551 -0.0149,-5.33173 0.0224,-0.93916 -0.34618,-1.281 -1.27458,-1.2563 -1.720913,0.0459 -3.445613,-0.0341 -5.165417,0.029 -1.032872,0.0378 -1.366367,-0.35883 -1.332054,-1.35964 0.05711,-1.66452 -0.04143,-3.33465 0.02461,-4.99849 0.04819,-1.2138 -0.3791,-1.66658 -1.630353,-1.6532 -4.999177,0.0534 -9.999663,0.0559 -14.998694,-0.003 -1.144216,-0.0135 -1.691983,0.40725 -2.070433,1.44163 -2.113221,5.77581 -3.270438,11.70165 -3.029445,17.8759 0.02444,0.62617 0.0043,1.65546 -0.326448,1.81696 -0.901699,0.43969 -1.976033,0.55923 -2.996824,0.68138 -0.14043,0.0168 -0.506989,-0.66284 -0.530112,-1.0349 -0.499934,-8.04571 0.895276,-15.76381 4.212307,-23.10568 1.660748,-3.67586 3.548023,-7.23827 6.428891,-10.30752 m 47.093002,75.36476 c 0.8092,-0.171 1.62994,-0.30014 2.42577,-0.51958 6.90979,-1.90523 13.21865,-4.90346 18.63985,-9.73261 1.37801,-1.22752 1.14609,-1.7636 0.0159,-2.746 -2.92574,-2.54321 -5.83649,-5.10536 -8.69754,-7.7209 -3.23114,-2.95386 -2.26519,-3.58741 -6.1311,0.49467 -0.56208,0.59354 -1.50794,1.08386 -2.30998,1.14004 -2.21113,0.1549 -4.44055,0.0796 -6.66196,0.0452 -1.38387,-0.0214 -1.91389,0.57516 -1.72242,1.94888 0.24689,1.77116 -0.004,2.04358 -1.7881,2.04767 -4.55498,0.0105 -9.10999,0.003 -13.665,0.002 -4.48887,-7.9e-4 -4.45978,-0.003 -4.54879,-4.45215 -0.0154,-0.77224 -0.1628,-1.75183 -0.64361,-2.26902 -2.267774,-2.43946 -4.638316,-4.78802 -7.065515,-7.06973 -0.369323,-0.34718 -1.476731,-0.47711 -1.822472,-0.19408 -3.683036,3.01477 -7.283068,6.13103 -10.901162,9.22495 -0.779226,0.66633 -0.749204,1.3136 -0.123357,2.15359 2.908274,3.90351 6.314115,7.31641 10.285048,10.0992 10.405948,7.29239 21.941458,9.64935 34.714428,7.54815 m -13.6569,-34.71495 c 2.49939,-3.2e-4 5.00042,0.0534 7.49751,-0.0228 1.33166,-0.0406 1.76276,0.48088 1.71926,1.76263 -0.0715,2.10814 -0.0203,4.22047 -0.0195,6.33104 0.002,3.27847 -8e-4,3.29781 3.12737,3.71393 0.92945,0.12364 1.90404,0.26101 2.81027,0.10862 0.93727,-0.15762 2.01621,-0.44105 2.68491,-1.05116 2.2542,-2.0567 4.37922,-4.25857 6.49037,-6.46545 0.4158,-0.43467 0.75688,-1.1315 0.77776,-1.72 0.0866,-2.44076 0.0168,-4.88661 0.0479,-7.33003 0.0125,-0.97948 -0.35342,-1.42417 -1.36952,-1.39072 -1.387,0.0456 -2.77671,0.0149 -4.1652,0.006 -2.76691,-0.0178 -2.4406,0.27658 -2.44926,-2.5334 -0.0121,-3.9434 0.0312,-7.88742 -0.0335,-11.82979 -0.0128,-0.78343 -0.26133,-1.6439 -0.65325,-2.32346 -0.82737,-1.4346 -1.7381,-2.84143 -2.78587,-4.11922 -0.45484,-0.55466 -1.3205,-1.04869 -2.0202,-1.07801 -2.88315,-0.12083 -5.77611,0.008 -8.66149,-0.0817 -1.30558,-0.0406 -1.6385,0.46498 -1.56438,1.65661 0.0826,1.32789 0.0231,2.66482 0.0204,3.99779 -0.004,2.28921 -0.0947,2.37916 -2.30399,2.37143 -1.33298,-0.004 -2.67109,0.0654 -3.99749,-0.0294 -1.35457,-0.0969 -1.73419,0.48376 -1.70532,1.75299 0.0644,2.83113 -0.006,5.6651 0.0322,8.49718 0.0172,1.2694 -0.46403,1.7787 -1.77954,1.74511 -2.88627,-0.0737 -5.776372,0.0131 -8.663524,-0.0405 -1.167079,-0.0217 -1.591299,0.43373 -1.551223,1.57128 0.05668,1.60878 -0.07679,3.22915 0.06223,4.82796 0.06518,0.74956 0.413196,1.61006 0.916363,2.16199 1.942838,2.13109 3.996258,4.16163 6.023524,6.21476 0.12083,0.12236 0.37332,0.11471 0.75721,0.22079 0,-1.80318 0.0684,-3.46265 -0.0213,-5.11351 -0.0735,-1.35187 0.36055,-1.88195 1.78058,-1.83702 2.88524,0.0913 5.77542,0.0264 8.99693,0.026 M 100.72732,115.818 c 0.61035,-6.6e-4 1.22748,0.0568 1.82974,-0.0135 1.55026,-0.18067 2.09529,0.47953 1.9856,2.00522 -0.10719,1.49052 0.0126,2.99594 -0.0392,4.49233 -0.0361,1.04758 0.33864,1.46091 1.43115,1.51491 9.85498,0.48715 9.85425,0.50167 16.74019,-6.55603 0.155,-0.15887 0.37989,-0.28855 0.45628,-0.47845 0.37838,-0.9408 0.98203,-1.88626 1.02221,-2.85024 0.12928,-3.10181 -0.0187,-6.2144 0.0726,-9.31895 0.0424,-1.44037 -0.52363,-2.1527 -1.86825,-2.45555 -1.93523,-0.43586 -3.83515,-1.0818 -5.78968,-1.36608 -2.88972,-0.42032 -5.82098,-0.880738 -8.72199,-0.809894 -3.18023,0.07765 -6.34027,0.797974 -9.52115,1.118834 -1.35326,0.13649 -1.82403,0.73265 -1.80595,2.02327 0.0413,2.94023 0.0116,5.88144 0.0134,8.82225 0.003,3.87582 0.003,3.87582 4.19491,3.87181 m 48.38435,49.38407 c 3.26398,-6.39251 4.68728,-13.18585 4.47311,-20.34675 -0.029,-0.96699 -0.35378,-1.41084 -1.3729,-1.40233 -3.7205,0.0311 -7.44148,0.0257 -11.16208,0.003 -0.84202,-0.005 -1.22346,0.29278 -1.193,1.16397 0.0387,1.10929 -0.0498,2.22476 0.0224,3.33065 0.078,1.19559 -0.44624,1.55599 -1.57273,1.51452 -1.71921,-0.0633 -3.44333,0.0164 -5.16366,-0.0293 -0.93068,-0.0246 -1.2876,0.32277 -1.26832,1.26005 0.0433,2.10941 -0.12593,4.23239 0.0543,6.32721 0.18719,2.17565 -0.42081,3.91334 -2.08323,5.27124 -1.22434,1.00008 -1.09055,1.80947 0.0674,2.80463 3.77893,3.24743 7.50899,6.5521 11.23411,9.86145 0.68486,0.6084 1.2172,0.72076 1.75619,-0.11439 2.02787,-3.14202 4.05881,-6.28208 6.20833,-9.64327 M 87.32952,105.09116 c -0.456972,0.19892 -0.942069,0.35071 -1.366627,0.60397 -5.042685,3.00817 -9.425081,6.81993 -13.240911,11.25153 -1.356218,1.57509 -2.367708,3.45187 -3.494426,5.21781 -0.628127,0.98445 -0.579427,1.65141 0.870671,1.64167 4.328764,-0.0291 8.658015,-0.0306 12.986719,0.004 1.059401,0.009 1.521747,-0.3611 1.490408,-1.44961 -0.04793,-1.6636 0.02635,-3.33081 -0.02548,-4.99416 -0.03588,-1.15487 0.442412,-1.5939 1.582476,-1.55619 1.663166,0.055 3.329789,-0.004 4.99437,0.0215 0.84881,0.0132 1.39862,-0.21348 1.39498,-1.19192 -0.0128,-3.4409 0.003,-6.88189 -0.0126,-10.32277 -0.004,-1.06896 -0.48315,-1.39459 -1.49584,-0.90619 -1.140373,0.54996 -2.3102,1.03887 -3.68376,1.68058 m 13.18525,19.57261 c -0.003,-1.22058 -0.002,-2.44117 -0.007,-3.66174 -0.004,-0.98519 -0.35893,-1.51021 -1.49044,-1.48714 -2.97936,0.0608 -5.9612,0.0419 -8.94132,8e-4 -1.035571,-0.0142 -1.540471,0.31728 -1.529247,1.42237 0.03207,3.16211 0.02955,6.32495 -0.0017,9.4871 -0.0099,1.01438 0.430781,1.37117 1.405819,1.36174 2.995718,-0.0289 5.991998,-0.0266 8.987818,-0.004 1.13848,0.009 1.60082,-0.52513 1.58465,-1.62773 -0.0252,-1.71957 -0.008,-3.43975 -0.009,-5.49152 m 24.0769,8.89093 c -0.21617,0.40708 -0.61308,0.81124 -0.61977,1.22173 -0.0507,3.10963 -0.0277,6.22049 -0.0211,9.33097 0.003,1.04557 0.5358,1.45217 1.5795,1.439 2.99893,-0.0378 5.99918,-0.0458 8.99778,0.003 1.08925,0.0178 1.46892,-0.39204 1.45369,-1.46279 -0.0434,-3.05433 -0.0511,-6.11034 0.004,-9.16428 0.0197,-1.08186 -0.33492,-1.46819 -1.43042,-1.44887 -3.22058,0.0568 -6.44269,0.0266 -9.96412,0.081 M 96.5301,168.95165 c 3.1e-4,2.51788 3.1e-4,2.51527 2.56459,2.51209 2.49894,-0.003 4.99893,-0.0422 7.49641,0.0186 1.17838,0.0287 1.72191,-0.30159 1.69341,-1.58757 -0.0677,-3.05281 -0.0608,-6.10872 -0.008,-9.16204 0.0205,-1.18076 -0.45286,-1.55127 -1.58083,-1.53163 -2.83129,0.0493 -5.66545,0.0687 -8.49555,-0.008 -1.34818,-0.0364 -1.7292,0.50102 -1.69332,1.77113 0.0722,2.55246 0.0225,5.10836 0.023,7.98699 z"
     id="path926"
     inkscape:connector-curvature="0"
     style="opacity:1;fill:#6ec5e3;stroke:#6ec5e3;stroke-width:1.64439535;stroke-miterlimit:4;stroke-dasharray:none;stroke-opacity:1" /><path
     style="opacity:0.98000004;fill:#6ec5e3;stroke:#6ec5e3;stroke-width:1.7767843;stroke-miterlimit:4;stroke-dasharray:none;stroke-opacity:1"
     inkscape:connector-curvature="0"
     id="path4836"
     d="m 281.74293,115.76877 c -0.36233,-0.54668 -0.58734,-1.05995 -0.94512,-1.45207 -5.24577,-5.7491 -11.21434,-10.44326 -18.53175,-13.39465 -4.69257,-1.892674 -9.49684,-2.961927 -14.49692,-3.506697 -8.11251,-0.883855 -15.82049,0.718994 -23.22268,3.790447 -4.62538,1.91924 -8.79741,4.6676 -12.606,8.03299 -4.30346,3.80264 -7.76639,8.19696 -10.65365,13.10308 -0.30217,0.51347 -0.56564,1.05466 -0.79638,1.60428 -0.58138,1.38488 -1.29612,2.46846 -2.91974,2.99362 -1.96489,0.63555 -2.82561,2.77432 -2.23166,4.64025 0.53586,1.68338 2.47465,2.77106 4.46312,2.50381 1.69833,-0.22826 3.07277,-1.90798 2.93326,-3.917 -0.21884,-3.15125 1.61375,-5.53174 3.07459,-7.92148 3.02598,-4.95017 6.91724,-9.21424 11.71921,-12.5535 1.64203,-1.14188 3.34778,-2.20341 5.08858,-3.18822 1.309,-0.74054 1.76491,-0.4247 1.77256,1.07609 0.0167,3.27894 -0.0547,6.55984 0.0469,9.83569 0.0241,0.774 0.41284,1.69326 0.93835,2.2666 1.77073,1.932 3.64833,3.77008 5.5474,5.5786 0.89091,0.84842 0.83908,1.55909 0.25373,2.57943 -1.00841,1.75782 -2.22931,2.58872 -4.41534,2.47531 -4.14227,-0.21489 -8.30424,-0.0224 -12.45669,-0.0861 -1.28108,-0.0196 -1.74894,0.38201 -1.69856,1.68645 0.0865,2.23732 -0.0141,4.48132 0.0401,6.72065 0.0251,1.0311 -0.27187,1.46979 -1.38147,1.45129 -3.38741,-0.0564 -6.77715,0.0129 -10.16364,-0.0664 -0.46218,-0.0109 -1.1297,-0.48853 -1.32684,-0.92113 -0.70605,-1.54924 -2.21354,-0.80993 -3.27003,-1.29901 -0.30989,0.6823 -0.83464,1.34725 -0.89144,2.05001 -0.2147,2.65671 -0.42045,5.32834 -0.37126,7.98962 0.16953,9.16597 3.08993,17.49624 8.15981,25.05292 1.83914,2.74126 3.88831,5.41801 6.2336,7.72589 3.80674,3.746 8.15842,6.83875 13.02426,9.14757 5.8187,2.761 11.90944,4.29288 18.36399,4.66044 8.91536,0.50773 17.29188,-1.29546 25.19068,-5.34405 5.68195,-2.91236 10.59664,-6.89929 14.6908,-11.76075 3.61312,-4.29025 6.32622,-9.1846 8.40418,-14.42372 0.38364,-0.96724 1.16318,-1.8121 1.8799,-2.60503 1.31572,-1.45564 1.49284,-3.65513 0.30064,-5.04876 -1.42422,-1.66482 -3.53666,-1.96612 -5.23758,-0.74704 -1.39713,1.00135 -2.00766,3.02837 -1.1772,4.56527 0.75538,1.39795 0.65682,2.66298 -0.0231,4.00473 -0.31879,0.62916 -0.53439,1.30975 -0.81987,1.95682 -1.23289,2.79456 -1.53796,2.80109 -3.81486,0.73404 -2.65931,-2.41428 -5.47648,-4.65592 -8.108,-7.09864 -0.66806,-0.62015 -1.22334,-1.70497 -1.26098,-2.6002 -0.14457,-3.43688 -0.11157,-6.88474 -0.0298,-10.32578 0.0315,-1.32102 -0.2997,-1.83798 -1.71531,-1.78453 -2.78319,0.10512 -5.57405,-0.01 -8.35988,0.0508 -1.1086,0.0243 -1.59144,-0.2789 -1.53469,-1.46776 0.0833,-1.74494 0.0562,-3.49736 0.0146,-5.24513 -0.022,-0.9239 0.34056,-1.26018 1.25388,-1.23588 1.69294,0.0451 3.38963,-0.0334 5.0815,0.0285 1.01609,0.0371 1.34416,-0.35301 1.31042,-1.33756 -0.0562,-1.63747 0.0408,-3.28048 -0.0243,-4.9173 -0.0474,-1.19408 0.37293,-1.6395 1.60386,-1.62634 4.91797,0.0526 9.83722,0.055 14.75506,-0.003 1.12563,-0.0133 1.66449,0.40064 2.0368,1.41822 2.07888,5.68198 3.21731,11.51156 2.98024,17.58552 -0.0241,0.61599 -0.004,1.62856 0.32113,1.78744 0.88705,0.43255 1.94393,0.55014 2.94815,0.67032 0.13815,0.0165 0.49875,-0.65208 0.5215,-1.01809 0.49182,-7.91502 -0.88073,-15.50774 -4.14388,-22.73035 -1.63377,-3.61616 -3.49039,-7.12069 -6.32446,-10.14009 m -46.32801,74.14052 c -0.79605,-0.16822 -1.60345,-0.29527 -2.38638,-0.51114 -6.79754,-1.87428 -13.00391,-4.82381 -18.33705,-9.57452 -1.35563,-1.20758 -1.12747,-1.73495 -0.0157,-2.70139 2.87821,-2.5019 5.74169,-5.02243 8.55627,-7.59548 3.17864,-2.90587 2.22837,-3.52913 6.03149,0.48664 0.55295,0.5839 1.48344,1.06625 2.27245,1.12152 2.17521,0.15238 4.36842,0.0782 6.55373,0.0444 1.3614,-0.0211 1.88283,0.56581 1.69446,1.91722 -0.24289,1.74239 0.004,2.01039 1.75905,2.01441 4.48098,0.0109 8.96202,0.003 13.44302,0.002 4.41595,-7.8e-4 4.38735,-0.003 4.47491,-4.37983 0.0152,-0.7597 0.16016,-1.72337 0.63315,-2.23216 2.23094,-2.39984 4.56298,-4.71024 6.95075,-6.95489 0.36331,-0.34155 1.45273,-0.46936 1.79286,-0.19093 3.6232,2.9658 7.16475,6.03145 10.72408,9.0751 0.76658,0.65551 0.73703,1.29225 0.12135,2.1186 -2.86103,3.84011 -6.21154,7.19756 -10.11798,9.93515 -10.2369,7.17393 -21.58505,9.49261 -34.15052,7.42555 m 13.43514,-34.15087 c -2.45878,-3.1e-4 -4.91919,0.0526 -7.3757,-0.0224 -1.31003,-0.0399 -1.73415,0.47307 -1.69135,1.734 0.0703,2.07389 0.02,4.15191 0.0192,6.22818 -0.002,3.22522 7.7e-4,3.24425 -3.07657,3.65361 -0.91436,0.12163 -1.87311,0.25677 -2.76462,0.10686 -0.92205,-0.15507 -1.98346,-0.43389 -2.6413,-1.03408 -2.21758,-2.0233 -4.30808,-4.1894 -6.38494,-6.36044 -0.40904,-0.4276 -0.74459,-1.11312 -0.76513,-1.69205 -0.0852,-2.40111 -0.0166,-4.80723 -0.0471,-7.21096 -0.0123,-0.96357 0.34769,-1.40104 1.34727,-1.36813 1.36447,0.0448 2.73161,0.0146 4.09754,0.005 2.72197,-0.0175 2.40096,0.27209 2.40948,-2.49225 0.0119,-3.87934 -0.0307,-7.75929 0.033,-11.63762 0.0126,-0.77072 0.25707,-1.61721 0.64263,-2.28572 0.81394,-1.4113 1.70985,-2.79528 2.74062,-4.05231 0.44745,-0.54565 1.29904,-1.03165 1.98739,-1.06051 2.8363,-0.11885 5.68227,0.008 8.52079,-0.0804 1.28435,-0.0399 1.61187,0.45743 1.53895,1.62971 -0.0813,1.30631 -0.0228,2.62152 -0.0201,3.93283 0.004,2.25204 0.0932,2.34052 2.26656,2.33291 1.31135,-0.004 2.62771,0.0644 3.93258,-0.0289 1.33254,-0.0952 1.70601,0.4759 1.67761,1.72452 -0.0634,2.78513 0.005,5.57307 -0.0316,8.35914 -0.0169,1.24879 0.45648,1.74981 1.75063,1.71677 2.83939,-0.0725 5.68254,0.0129 8.52281,-0.0398 1.14811,-0.0214 1.56543,0.42668 1.52601,1.54575 -0.0558,1.58264 0.0755,3.1767 -0.0612,4.74953 -0.0641,0.73738 -0.40648,1.58391 -0.90147,2.12687 -1.91128,2.09648 -3.93133,4.09403 -5.9257,6.11381 -0.11885,0.12038 -0.36723,0.11285 -0.74488,0.21721 0,-1.77389 -0.0674,-3.4064 0.0209,-5.03045 0.0722,-1.32992 -0.35469,-1.85137 -1.75165,-1.80718 -2.83838,0.0899 -5.68161,0.0259 -8.85078,0.0256 m 2.29966,-39.0403 c -0.60044,-6.6e-4 -1.20753,0.0559 -1.80002,-0.0133 -1.52507,-0.17773 -2.06127,0.47174 -1.95334,1.97264 0.10545,1.4663 -0.0123,2.94728 0.0385,4.41937 0.0356,1.03055 -0.33316,1.43717 -1.4079,1.49029 -9.69491,0.47925 -9.69418,0.49351 -16.46828,-6.44953 -0.15247,-0.15629 -0.37371,-0.28386 -0.44886,-0.47068 -0.37224,-0.9255 -0.96607,-1.85561 -1.00561,-2.80393 -0.12717,-3.05144 0.0185,-6.11346 -0.0715,-9.16757 -0.0417,-1.41698 0.51514,-2.11773 1.8379,-2.41567 1.9038,-0.42877 3.77284,-1.06423 5.69563,-1.34389 2.84278,-0.4135 5.72642,-0.86643 8.58032,-0.79673 3.12856,0.0764 6.23726,0.785 9.36646,1.10064 1.33129,0.1343 1.7944,0.72077 1.77663,1.99042 -0.0406,2.89246 -0.0114,5.78589 -0.0132,8.67893 -0.003,3.81287 -0.003,3.81287 -4.12677,3.80892 m -47.59839,48.58186 c -3.21094,-6.28867 -4.61113,-12.97165 -4.40044,-20.01622 0.0285,-0.9513 0.34803,-1.38793 1.35059,-1.37955 3.66007,0.0306 7.32061,0.0252 10.98077,0.003 0.82835,-0.004 1.20359,0.28802 1.17362,1.14505 -0.0381,1.09127 0.049,2.18862 -0.0221,3.27656 -0.0767,1.17616 0.43899,1.53071 1.54718,1.48991 1.69129,-0.0623 3.38741,0.0161 5.07979,-0.0289 0.91556,-0.0242 1.26668,0.31753 1.24772,1.23957 -0.0426,2.07515 0.12387,4.16365 -0.0535,6.22444 -0.18415,2.14031 0.41398,3.84977 2.0494,5.18561 1.20446,0.98383 1.07285,1.78008 -0.0665,2.75908 -3.71754,3.19467 -7.387,6.44566 -11.05162,9.70125 -0.67372,0.59852 -1.19741,0.70904 -1.72765,-0.11252 -1.99493,-3.09099 -3.99288,-6.18005 -6.10748,-9.48663 m 60.77854,-59.13465 c 0.44954,0.19569 0.92676,0.34502 1.34442,0.59415 4.96077,2.95931 9.27197,6.70915 13.02583,11.06877 1.33419,1.54949 2.32924,3.39578 3.43765,5.13304 0.61792,0.96847 0.57002,1.62458 -0.85653,1.61501 -4.25845,-0.0286 -8.51737,-0.0301 -12.77575,0.004 -1.0422,0.009 -1.49702,-0.35522 -1.4662,-1.42604 0.0472,-1.63658 -0.0259,-3.27671 0.0252,-4.91305 0.0354,-1.13611 -0.43524,-1.568 -1.55678,-1.5309 -1.63613,0.0541 -3.2757,-0.004 -4.91323,0.0211 -0.83503,0.013 -1.37591,-0.21001 -1.37234,-1.17255 0.0126,-3.38501 -0.003,-6.7701 0.0124,-10.15508 0.004,-1.0516 0.47531,-1.37194 1.47154,-0.89148 1.12185,0.54104 2.27267,1.022 3.62391,1.65328 m -12.97106,19.25467 c 0.003,-1.20075 0.002,-2.40152 0.007,-3.60226 0.004,-0.96918 0.35308,-1.48566 1.4662,-1.46297 2.93097,0.0598 5.86439,0.0412 8.79609,7.8e-4 1.01875,-0.014 1.51544,0.31212 1.5044,1.39926 -0.0315,3.11075 -0.0291,6.2222 0.002,9.33299 0.01,0.99791 -0.42378,1.3489 -1.38297,1.33963 -2.94705,-0.0285 -5.89466,-0.0261 -8.84183,-0.004 -1.11999,0.009 -1.57481,-0.51659 -1.5589,-1.60128 0.0248,-1.69163 0.008,-3.38387 0.009,-5.40232 m -23.6858,8.7465 c 0.21265,0.40048 0.60311,0.79806 0.60971,1.20189 0.0498,3.05911 0.0272,6.11944 0.0207,9.1794 -0.003,1.02859 -0.5271,1.42859 -1.55385,1.41561 -2.95021,-0.0371 -5.90171,-0.045 -8.8516,0.003 -1.07158,0.0175 -1.44506,-0.38567 -1.43008,-1.43903 0.0427,-3.00471 0.0503,-6.01107 -0.004,-9.0154 -0.0194,-1.0643 0.32948,-1.44435 1.40718,-1.42535 3.16826,0.0559 6.33804,0.0261 9.80226,0.0797 m 27.60488,34.8221 c -3.2e-4,2.47697 -3.2e-4,2.4744 -2.52293,2.47127 -2.45837,-0.003 -4.91774,-0.0416 -7.37465,0.0183 -1.15923,0.0282 -1.69394,-0.29669 -1.6659,-1.56177 0.0666,-3.00322 0.0599,-6.0095 0.008,-9.01322 -0.0202,-1.16158 0.4455,-1.52608 1.55516,-1.50676 2.7853,0.0485 5.57342,0.0676 8.35753,-0.008 1.32628,-0.0358 1.70112,0.49288 1.66583,1.74236 -0.071,2.511 -0.0222,5.02538 -0.0227,7.85726 z"
     class="no-fill" /><text
     xml:space="preserve"
     style="font-style:normal;font-variant:normal;font-weight:bold;font-stretch:normal;font-size:64px;line-height:1.25;font-family:'.Apple SD Gothic NeoI';-inkscape-font-specification:'.Apple SD Gothic NeoI, Bold';font-variant-ligatures:normal;font-variant-caps:normal;font-variant-numeric:normal;font-feature-settings:normal;text-align:start;letter-spacing:0px;word-spacing:0px;writing-mode:lr-tb;text-anchor:start;fill:#6ec5e3;fill-opacity:1;stroke:none"
     id="text4840"
     y="297.11856"
     x="75.439865"><tspan
   style="font-style:normal;font-variant:normal;font-weight:bold;font-stretch:normal;font-size:64px;font-family:'.Apple SD Gothic NeoI';-inkscape-font-specification:'.Apple SD Gothic NeoI, Bold';font-variant-ligatures:normal;font-variant-caps:normal;font-variant-numeric:normal;font-feature-settings:normal;text-align:start;writing-mode:lr-tb;text-anchor:start;fill:#6ec5e3;fill-opacity:1"
   id="tspan4838">/admin</tspan></text>
<text
     xml:space="preserve"
     style="font-style:normal;font-variant:normal;font-weight:normal;font-stretch:normal;font-size:75.94800568px;line-height:1.25;font-family:'Sinhala MN';-inkscape-font-specification:'Sinhala MN';letter-spacing:0px;word-spacing:0px;fill:#ececec;fill-opacity:1;stroke:none;stroke-width:1.18668759"
     x="149.45657"
     y="167.45923"
     id="text4991"><tspan
       sodipodi:role="line"
       id="tspan4989"
       x="149.45657"
       y="167.45923"
       style="stroke-width:1.18668759">H</tspan></text>
</svg>